<?xml version="1.0" encoding="UTF-8"?>
<svg id="Layer_2" data-name="Layer 2" xmlns="http://www.w3.org/2000/svg" viewBox="0 0 1380.96 282">
  <defs>
    <style>
      .cls-1 {
        fill: #2a2d34;
      }

      .cls-1, .cls-2 {
        stroke-width: 0px;
      }

      .cls-2 {
        fill: #ff0900;
      }
    </style>
  </defs>
  <g id="Layer_1-2" data-name="Layer 1">
    <g>
      <g>
        <path class="cls-1" d="m54.4,138.89V30.09H0V0h138.89v30.09h-54.4v108.8h-30.09Z"/>
        <path class="cls-1" d="m181.52,138.89c-5.15,0-9.9-1.28-14.28-3.86-4.38-2.57-7.84-6.04-10.42-10.42-2.57-4.37-3.86-9.13-3.86-14.28V28.55c0-5.27,1.28-10.06,3.86-14.37,2.57-4.31,6.04-7.75,10.42-10.32,4.37-2.57,9.13-3.86,14.28-3.86h81.79c5.14,0,9.87,1.29,14.18,3.86,4.31,2.57,7.78,6.02,10.41,10.32,2.64,4.31,3.96,9.1,3.96,14.37v81.79c0,5.15-1.32,9.9-3.96,14.28-2.64,4.38-6.11,7.84-10.41,10.42-4.31,2.57-9.04,3.86-14.18,3.86h-81.79Zm80.05-30.09V30.09h-78.71v78.7h78.71Z"/>
        <path class="cls-1" d="m313.27,138.89V0h30.09v54.4h27.2L416.08,0h31.25v10.42l-49.58,59.03,49.58,59.03v10.42h-31.25l-45.52-54.4h-27.2v54.4h-30.09Z"/>
        <path class="cls-1" d="m467.2,138.89V0h128.28v30.09h-98v24.31h78.9v30.09h-78.9v24.31h98v30.09h-128.28Z"/>
        <path class="cls-1" d="m614.58,138.89V0h30.86l77.74,92.59V0h30.28v138.89h-30.86l-78.12-92.98v92.98h-29.9Z"/>
        <path class="cls-1" d="m775.45,28.55c0-5.27,1.28-10.06,3.86-14.37,2.57-4.31,6.04-7.75,10.42-10.32,4.37-2.57,9.13-3.86,14.27-3.86h81.6c5.27,0,10.06,1.29,14.37,3.86,4.31,2.57,7.78,6.02,10.41,10.32,2.64,4.31,3.96,9.1,3.96,14.37v110.34h-30.29v-44.75h-78.7v44.75h-29.9V28.55Zm108.6,35.49V30.09h-78.7v33.95h78.7Z"/>
        <path class="cls-1" d="m950.22,135.03c-4.37-2.57-7.84-6.04-10.41-10.42-2.57-4.37-3.86-9.13-3.86-14.28V0h29.9v108.8h78.71V0h30.28v110.34c0,5.15-1.32,9.9-3.95,14.28-2.64,4.38-6.11,7.84-10.42,10.42-4.31,2.57-9.04,3.86-14.18,3.86h-81.79c-5.14,0-9.9-1.28-14.28-3.86Z"/>
        <path class="cls-1" d="m1143.5,138.89V30.09h-54.4V0h138.89v30.09h-54.4v108.8h-30.09Z"/>
        <path class="cls-1" d="m1270.62,138.89c-5.14,0-9.9-1.28-14.28-3.86-4.37-2.57-7.84-6.04-10.41-10.42-2.57-4.37-3.86-9.13-3.86-14.28v-12.92h29.9v11.38h78.71v-24.31h-80.05c-5.14,0-9.9-1.28-14.28-3.86-4.37-2.57-7.84-6.01-10.41-10.32-2.57-4.31-3.86-9.1-3.86-14.37v-27.39c0-5.27,1.28-10.06,3.86-14.37,2.57-4.31,6.04-7.75,10.41-10.32,4.37-2.57,9.13-3.86,14.28-3.86h81.79c5.14,0,9.87,1.29,14.18,3.86,4.31,2.57,7.78,6.02,10.42,10.32,2.63,4.31,3.95,9.1,3.95,14.37v12.92h-30.28v-11.38h-78.71v24.31h80.44c5.14,0,9.87,1.29,14.18,3.86,4.31,2.57,7.78,6.01,10.42,10.32,2.63,4.31,3.95,9.1,3.95,14.37v27.39c0,5.15-1.32,9.9-3.95,14.28-2.64,4.38-6.11,7.84-10.42,10.42-4.31,2.57-9.04,3.86-14.18,3.86h-81.79Z"/>
      </g>
      <g>
        <path class="cls-2" d="m912.63,242.07c-.13.17-.27.37-.39.61-.13.24-.19.44-.17.58-.09.62-.03,1.21.18,1.79.21.58-.21.85-1.28.81-1.33.29-2,1.15-2,2.58,0,1.44-.52,2.36-1.53,2.76-.18-.28-.42-.37-.71-.27-.29.11-.41.38-.37.83l.67-.07c-.37.8-.89,1.26-1.56,1.4-.66.15-1.18.61-1.56,1.41l.97.58c.08.75,0,1.44-.24,2.06-.24.63-.55,1.27-.94,1.91-1.68-.13-2.92.64-3.73,2.3-.82,1.67-1.94,2.88-3.37,3.63-.42.35-.86.51-1.31.47-.46-.03-.81.2-1.06.67-1.48,1.81-3.2,3.42-5.17,4.83-1.98,1.41-3.87,2.88-5.67,4.43-.57.36-1.13.75-1.69,1.19-.56.43-1.23.54-2.01.32-2.48.85-4.95,1.86-7.4,3.02-2.45,1.15-5.1,1.8-7.96,1.94-7.64.62-15.16-.92-22.56-4.61-7.4-3.7-13.38-8.64-17.93-14.83-2.82-3.94-4.8-8.19-5.94-12.76-1.14-4.56-2.11-9.22-2.9-13.98-4.21-10.29-6.43-20.98-6.66-32.05-.22-11.08,1.4-21.93,4.85-32.55,1.84-8.64,4.57-16.96,8.22-24.96,3.64-7.99,8.36-15.38,14.17-22.17,1.88-2.3,4.13-4.65,6.76-7.03,1.91-.5,3.93-1.04,6.06-1.64,2.13-.59,4.14-.46,6.04.4,3.56.85,7.32,1.79,11.27,2.82,3.96,1.03,7.68,2.39,11.17,4.07,3.49,1.68,6.58,3.86,9.27,6.53,2.68,2.67,4.54,6.07,5.57,10.19.75,4.45,1.1,8.99,1.04,13.6-.06,4.61-1.08,9.06-3.06,13.34-.99,2.22-2.23,4.87-3.72,7.97-1.5,3.1-3.25,5.96-5.25,8.57-2,2.62-4.24,4.7-6.73,6.23s-5.28,1.93-8.37,1.19c-1.29-.77-2.76-1.49-4.41-2.16-1.65-.66-2.27-1.92-1.86-3.78.04-1.06-.18-2.13-.67-3.22s-.64-2.16-.44-3.24c.13-1.67.74-3.09,1.83-4.26,2.56-2.98,4.81-6.19,6.72-9.63,1.92-3.44,3.35-7.1,4.32-10.97,1.08-4.19,1.02-8.15-.19-11.87-1.21-3.73-3.04-6.49-5.49-8.27-2.45-1.79-5.17-2.15-8.15-1.1-2.99,1.06-5.66,4.2-7.99,9.42-4.91,6.69-9.1,14.06-12.58,22.12-3.49,8.06-6.08,16.36-7.77,24.92-1.7,8.55-2.37,17.16-2.02,25.8.35,8.65,1.92,16.99,4.7,25.01,2.07,5.53,5.32,9.62,9.74,12.26,4.42,2.65,9.32,4.45,14.71,5.41,3.02,0,5.94-.64,8.75-1.91,2.82-1.27,5.45-2.82,7.91-4.66,2.45-1.84,4.77-3.92,6.95-6.26,2.17-2.33,4.13-4.65,5.86-6.94,1.73-2.29,3.93-3.61,6.62-3.96,2.68-.35,5.4-.36,8.15-.03,1.48,1.21,3.14,2.25,4.96,3.12,1.82.87,3.34,2.08,4.56,3.61l-.81.99.16,1.57c.3-.03.59-.1.89-.2.29-.1.61.05.95.47l.46-2.09c.33.27.69.84,1.08,1.7Zm-14.29,19.8l.82-.77c-.91-.06-1.19.2-.82.77Z"/>
        <path class="cls-2" d="m1045.47,254.15l.27.43-1.57.16c-1.07,1.32-2.55,2.38-4.43,3.17-1.88.79-3.81,1.21-5.76,1.27-1.96.05-3.74-.33-5.33-1.16-1.59-.82-2.7-2.1-3.33-3.85-3.73-5.51-7.13-11.09-10.2-16.75-3.07-5.65-5.68-11.62-7.82-17.89-3.81-6.26-8.96-11.55-15.43-15.87-6.48-4.32-13.22-7.49-20.22-9.5-.57,1.87-1.07,3.62-1.51,5.25-.44,1.63-.8,3.29-1.08,4.98-1.13.72-1.77,1.54-1.9,2.46-.13.92-.3,1.92-.49,2.99-.03,1.21-.41,2.35-1.13,3.4-.72,1.06-1.02,2.26-.88,3.6-.45,7.45-1.74,14.83-3.86,22.14-2.13,7.32-5.37,14.06-9.72,20.24-2.06,3.53-5.15,5.81-9.27,6.83-4.13,1.02-8.02.59-11.68-1.3-.96-.5-1.52-1.24-1.7-2.21-.18-.96-.39-1.96-.64-2.99,1.94-3.22,3.5-6.73,4.7-10.56,1.2-3.82,2.21-7.59,3.04-11.29-1.12-.64-2.2-1.21-3.23-1.71-1.04-.5-1.97-1.16-2.81-1.98-1.08-1.7-2.76-2.66-5.05-2.88-.2-.43-.42-.82-.69-1.18-.27-.35-.63-.58-1.09-.68-.3.03-.46-.1-.49-.4l-.07-.67c-.5-.4-1.02-.76-1.58-1.08-.56-.32-.95-.77-1.16-1.35-.2-.43-.61-.77-1.24-1.01-1.86-.41-3.24-1.44-4.17-3.09-.92-1.64-1.84-3.25-2.76-4.82-1.26-3.5-1.48-7.1-.64-10.81.83-3.71,1.67-7.27,2.54-10.68.31-1.39,1.03-2.41,2.18-3.05,1.14-.64,1.88-1.59,2.2-2.83,2.79-2.24,5.9-4,9.32-5.25,3.42-1.25,6.89-2.44,10.4-3.55,4.13-1.02,7.05-1.62,8.77-1.8,1.72-.17,2.89-.56,3.51-1.15.62-.59,1.02-1.8,1.21-3.63s.75-4.91,1.67-9.23c1.67-8.78,3.2-17.54,4.58-26.29,1.38-8.75,2.44-17.54,3.21-26.38-.4-3.88.73-6.94,3.37-9.18,2.64-2.23,5.29-4.39,7.95-6.47.7-.53,1.31-.43,1.84.27-.23.78-.25,1.69-.06,2.72.18,1.04.74,1.74,1.69,2.09,2.18.69,4.32,1.68,6.42,2.97,2.09,1.3,3.71,3.02,4.83,5.17,3.01,5.89,5.45,12.02,7.31,18.4,1.86,6.38,3.71,12.8,5.58,19.25,1.64,5.72,3.64,11.26,5.99,16.61,1.18,1.24,1.86,2.75,2.05,4.55,1.08,1.7,1.98,3.46,2.69,5.28.71,1.82,1.39,3.67,2.04,5.57.56,2.51,1.54,5.09,2.94,7.74,1.4,2.65,1.77,5.22,1.12,7.7-.39.65-.32,1.32.21,2.02l1.5-.83.61,1.52-1.72.85c.11,1.05.39,2,.86,2.86.46.86.9,1.87,1.33,3.04.52-.81.68-1.46.48-1.98-.21-.51-.11-1.08.28-1.73.43,1.32,1.01,2.92,1.74,4.81.72,1.89.69,3.48-.08,4.76-.09.62,0,1.21.29,1.78.29.57.59,1,.92,1.26,3.79,4.6,7.22,9.38,10.29,14.36,3.07,4.98,6.15,10.02,9.24,15.14.89,1.27,1.42,2.5,1.62,3.68.2,1.19.31,2.27.33,3.25.02.98.11,1.84.26,2.58.15.74.63,1.37,1.44,1.89Zm-100.62-53.87c.31-1.39.63-2.7.96-3.95.33-1.24.56-2.62.71-4.15-3.96-.35-8.04.03-12.23,1.13-4.19,1.11-7.83,2.8-10.92,5.08,1.14,2.3,3.19,3.49,6.14,3.57,2.95.08,5.25-.72,6.89-2.4,3.14-.32,5.72.55,7.74,2.61.28-.18.48-.46.59-.85.11-.39.15-.73.12-1.03Zm30.67-19.2c3.68.53,7.14,1.54,10.39,3.02,3.24,1.48,6.6,2.95,10.08,4.41-2.03-6.59-4.08-13.33-6.14-20.22-2.06-6.89-4.46-13.37-7.19-19.43-.48,4.13-1.44,8.15-2.85,12.07-1.42,3.92-2.36,7.94-2.85,12.07-.01,1.36-.37,2.64-1.08,3.85s-.83,2.62-.36,4.23Zm37.55,3.88l-.02-.22-.02-.22.05.45Zm7.06,22.62c-.08-.75-.38-1.47-.9-2.17.09.9.39,1.62.9,2.17Zm2.92,4.23l-.02-.23.23-.02-.2.25Z"/>
        <path class="cls-2" d="m1187.48,271.87l.09.9c-1.13.72-2.02,1.71-2.64,2.99-.63,1.27-1.7,1.91-3.2,1.91-2.05.66-4.11.83-6.18.52-2.07-.32-4.08-.76-6.03-1.31-1.95-.56-3.89-1.15-5.84-1.78-1.95-.63-3.92-1.07-5.91-1.33-6.61-2.65-13.14-5.61-19.59-8.88-6.45-3.27-12.49-7.26-18.1-11.98-2.41-1.42-5.42-4.35-9.05-8.82-3.63-4.46-7.41-8.95-11.34-13.46-3.93-4.51-7.72-8.39-11.38-11.64-3.65-3.25-6.66-4.53-9-3.84-.37,5.32-.47,10.69-.29,16.11.17,5.42-.54,10.7-2.13,15.85-.83,2.2-2.34,3.37-4.51,3.52-2.18.15-4.16.31-5.95.49-2.48-.65-4.57-1.84-6.25-3.56-1.69-1.71-3.13-3.65-4.33-5.79-1.2-2.14-2.19-4.42-2.96-6.83-.78-2.41-1.5-4.72-2.18-6.91-2.15-.38-3.58-1.75-4.27-4.1-.69-2.34-.6-4.39.28-6.15.62-1.27,1.05-2.22,1.29-2.85.24-.63.37-1.21.39-1.74.02-.53-.03-1.05-.16-1.57-.13-.52-.24-1.3-.35-2.34-.7-6.88-.96-13.91-.79-21.1.18-7.19,1.59-14.01,4.26-20.48-.16-4.51-.27-9.68-.33-15.48-.06-5.8.41-11.55,1.42-17.25,1.01-5.69,2.75-10.85,5.22-15.48,2.47-4.63,6.17-7.95,11.1-9.96,3.69-.83,7.69-1.24,11.99-1.22,4.31.02,8.44.58,12.4,1.68,3.96,1.11,7.57,2.82,10.83,5.13,3.25,2.31,5.75,5.34,7.49,9.09,1.17,2.6,1.82,5.29,1.95,8.07.13,2.78.03,5.55-.29,8.3s-.84,5.49-1.54,8.2c-.71,2.72-1.22,5.45-1.55,8.2.08.75-.29,1.58-1.1,2.49-.81.91-.96,1.72-.43,2.42-1.17,3.29-2.31,6.62-3.4,9.97-1.1,3.36-2.61,6.65-4.54,9.86-.9,1.6-1.99,3.11-3.28,4.53-1.29,1.42-2.29,3.06-3.01,4.95-.63,1.27-1.41,2.52-2.34,3.75-.93,1.23-1.47,2.61-1.62,4.13-.26.48-.48.81-.69.98-.21.17-.44.5-.69.98,4.3.77,8.61,1.88,12.91,3.33,4.3,1.45,8.04,3.75,11.24,6.9,1.16,1.09,2.23,2.26,3.19,3.53.96,1.26,2.16,2.35,3.61,3.26-.12-1.2-1.01-2.54-2.68-4.03,1.06.04,2.15.69,3.26,1.93,1.1,1.25,1.7,2.32,1.8,3.22l-1.32.36c.05.45.53,1.53,1.46,3.25s1.68,2.47,2.27,2.26c-.29.18-.34.41-.15.69.16.14.27.09.33-.15.05-.23,0-.41-.17-.55,1.19,1.39,2.14,2.84,2.82,4.36.68,1.52,1.88,2.57,3.6,3.15.87-.39,1.77-.07,2.7.97.93,1.04,1.94,2.33,3,3.88,1.06,1.56,2.05,3.08,2.96,4.57.9,1.49,1.69,2.51,2.35,3.05.18-1.23-.11-2.22-.87-2.97-.76-.75-1.41-1.56-1.94-2.41,4.1,3.21,7.98,6.85,11.64,10.93,3.66,4.08,7.9,7.47,12.7,10.15l1.8-.18c.74-.08,1.3.24,1.68.96.36.57.89.93,1.58,1.08.7.16,1.35.35,1.98.59.64-2.64,1.95-3.07,3.95-1.31.98-.7,1.86-.95,2.64-.72.78.22,1.58.67,2.4,1.34.82.67,1.61,1.38,2.37,2.14.75.75,1.54,1.39,2.34,1.91.49.4,1,.88,1.5,1.43.51.55.87,1.12,1.08,1.7-.26.48-.1,1.22.45,2.22Zm-105.98-93.19c7.5-10.88,12.09-20.67,13.78-29.38,1.68-8.7,1.59-15.87-.26-21.49-1.86-5.62-4.88-9.39-9.08-11.31-4.2-1.91-8.3-1.46-12.32,1.37-4.02,2.83-7.42,8.34-10.21,16.55-2.79,8.21-3.74,19.67-2.85,34.38.96.51,1.93.79,2.92.84.99.05,2,.02,3.05-.08,1.5,1.36,2.69,3.05,3.57,5.07.88,2.03,1.35,4.02,1.4,5.97-.92,1.3-.85,2.46.24,3.49s1.91,2.11,2.49,3.26c1.37-1.35,2.63-2.72,3.77-4.12,1.14-1.4,2.31-2.91,3.5-4.55Z"/>
        <path class="cls-2" d="m1250.88,102.33c1.22,1.69,1.78,3.37,1.65,5.04-.71.53-1.41,1.02-2.12,1.46-.72.45-1.55.42-2.5-.09-.94-.36-1.48-.45-1.61-.29-.58.21-1.07.22-1.47.04s-.81-.18-1.24.01c-.05,1.06.34,1.93,1.17,2.6.82.67,1.43,1.44,1.82,2.31-.18,1.23.06,2.15.73,2.76.66.61,1.42,1.33,2.26,2.15l-.26,1.84-1.28.81-.13.92c-1.78.33-3.5.43-5.18.3-1.68-.13-3.45.28-5.31,1.22l1.21-1.48c-.36-.56-.9-.66-1.61-.29-.6.06-1.15.19-1.66.39-.51.2-1.08.19-1.7-.05-1.21-.02-2.4.24-3.55.81-1.15.57-2.38,1.07-3.7,1.51-2.6-.34-5.34-.51-8.21-.53-2.87,0-5.66.05-8.37.17-.81-.52-1.74-.77-2.79-.74-1.05.03-1.93-.37-2.61-1.21-.71-.98-1.51-1.81-2.41-2.47-.9-.66-1.71-1.56-2.42-2.7-1.91.5-3.87.92-5.87,1.28-2,.36-4.02.94-6.05,1.75l.61-.74c-.75.08-1.47.45-2.15,1.12l-.02-.22c-.6.06-1.02.37-1.26.92-.25.56-.7.64-1.34.25-2.03.81-4.02,1.62-5.98,2.42-1.95.8-3.96,1.54-6.01,2.19-.72.38-1.56.61-2.53.71s-1.32.74-1.05,1.92c1.13,6.68,1.85,13.37,2.16,20.06.3,6.69.42,13.44.36,20.24,3.9-.24,7.67-1.38,11.31-3.42,3.65-2.03,7.27-3.83,10.89-5.41,2.75-1.18,5.33-2.88,7.75-5.09,2.42-2.21,5.19-3.55,8.31-4.02,2.62.49,5.22,1.62,7.82,3.4,2.59,1.77,4.54,3.88,5.85,6.31.11,1.05.14,2.14.11,3.27s.43,2.03,1.41,2.69c-1.33,3.31-4.19,6.35-8.58,9.14-4.4,2.79-9.29,5.21-14.67,7.27-5.38,2.06-10.73,3.66-16.05,4.8-5.32,1.15-9.63,1.81-12.93,1.99.01,1.66.22,3.72.63,6.17.4,2.45.98,4.88,1.76,7.3.77,2.41,1.75,4.58,2.93,6.5,1.18,1.92,2.63,3.25,4.37,3.97,6.4,2.07,12.75,2.52,19.05,1.35,6.3-1.17,12.32-3.25,18.05-6.25,1.57-.91,3.45-1.74,5.64-2.5,2.19-.75,4.37-1.16,6.56-1.23,2.18-.07,4.14.3,5.89,1.1,1.74.81,3.1,2.29,4.08,4.45-.03,1.22.43,2.41,1.38,3.6.95,1.19.81,2.37-.43,3.55-1.11,1.02-1.43,2.34-.96,3.95.15,1.5-.18,2.66-1,3.5-.82.84-1.85,1.51-3.08,2.01-1.23.5-2.59.94-4.06,1.32-1.47.38-2.71.84-3.71,1.39-8.11,3.4-15.75,5.19-22.9,5.39-7.15.2-14.94-1.01-23.36-3.63-10.15-3.19-17.74-8.42-22.78-15.69-5.04-7.26-8.52-15.48-10.44-24.65-1.91-9.17-2.77-18.71-2.57-28.62.2-9.91.47-19.11.82-27.61-1.97-.1-3.86.24-5.67,1.03-1.81.79-3.6.59-5.38-.59-.32-.12-.56-.24-.72-.38-.16-.13-.4-.19-.7-.15-1.06-.04-1.93-.44-2.61-1.21-.68-.76-1.49-1.32-2.44-1.68-.55-1-1.19-2.03-1.9-3.09-.71-1.06-.98-2.2-.8-3.43,2.24-1.74,4.68-3.34,7.33-4.82,2.64-1.48,5.25-2.95,7.82-4.42-.05-.45-.02-.9.09-1.37.1-.46.21-.93.31-1.39,5.85-3.31,12.39-6.62,19.6-9.92,7.22-3.3,14.65-6.25,22.32-8.84,7.66-2.59,15.31-4.65,22.93-6.18,7.62-1.53,14.9-2.34,21.84-2.45,1.06.04,2.16.08,3.3.12s2.23.08,3.29.12c3.44,1.16,6.31,3.36,8.6,6.6,2.29,3.24,4.35,6.35,6.16,9.34Zm-63.43,17.78c-.27.33-.64.37-1.12.11l1.12-.11Zm36.22,44.34c.43-.19.74-.08.94.36-.3.03-.56.09-.77.19-.22.1-.27-.08-.17-.55Zm1.31-76.24l-.22.02c-.18-.28-.42-.41-.72-.38.16.14.4.26.72.38l.22-.02Z"/>
        <path class="cls-2" d="m1352.65,171.94c1.28,3.65,1.73,7.34,1.35,11.08-.38,3.74-1.38,7.2-3.02,10.39l.87-.31c-.03,1.21-.72,2.19-2.08,2.93-1.36.74-2.37,1.6-3.03,2.57-6.85,5.38-14.02,10.19-21.52,14.42-7.5,4.24-15.5,7.62-24,10.14l.97.58c-1.88.8-3.89,1.15-6.01,1.06-1.76.48-3.51.81-5.22.98s-3.35-.64-4.89-2.45c.25-.48.44-.87.56-1.19.12-.31-.07-.67-.56-1.08-2.29-1.73-3.72-3.92-4.29-6.58-.37-2.08-.07-3.99.88-5.75.95-1.76,2.2-3.24,3.74-4.46,2.34-.69,5.78-1.8,10.31-3.31,4.53-1.52,9.32-3.36,14.39-5.54,5.07-2.17,9.92-4.59,14.55-7.26,4.64-2.66,8.14-5.39,10.49-8.2,2.36-2.81,3.08-5.67,2.18-8.6-.9-2.93-4.28-5.76-10.15-8.48-6-2.56-12.31-4.41-18.91-5.55-6.61-1.14-13.18-1.83-19.69-2.07-3.02,0-6.16-.09-9.43-.29-3.27-.19-6.42-.71-9.44-1.53-3.03-.82-5.8-2.09-8.31-3.8-2.52-1.71-4.6-4.06-6.27-7.06-.41-2.52.5-5.49,2.72-8.88,2.22-3.4,5.21-6.99,8.98-10.77,3.77-3.78,7.99-7.53,12.67-11.26,4.68-3.72,9.31-7.18,13.9-10.36,4.58-3.18,8.87-5.92,12.87-8.22,3.99-2.29,7.16-3.86,9.49-4.7,1.51,0,2.68.75,3.51,2.25.83,1.5,1.75,2.73,2.76,3.68.87,1.12,1.2,2.56,1.01,4.32-.2,1.76-.78,3.14-1.73,4.14-6.19,5.92-12.61,11.55-19.23,16.91-6.63,5.36-12.88,11.13-18.74,17.31,6.25.58,12.86,1.41,19.85,2.51,6.98,1.1,13.65,2.88,20.02,5.33,6.36,2.45,12.07,5.83,17.11,10.15,5.05,4.32,8.83,9.98,11.35,16.97Zm-58.48,55.33c1.18-.27,2.4-.51,3.67-.71,1.26-.2,2.5-.21,3.73-.04l.05.45c-.6.06-1.25.28-1.97.65-.72.38-1.44.68-2.17.9-.73.23-1.41.3-2.02.21-.61-.09-1.04-.57-1.28-1.45Zm17.44-4.49l.22-.02-.22.02Zm2.65-.72l.18-.47-.18.47Zm4.93-2.77l.2-.25.02.22-.22.02Zm4.12-1.78c.13-.16.28-.18.45-.05l-.22.02-.22.02Zm1.3-.59l-.02-.23.22-.02c.02.15-.05.23-.2.25Zm8.89-6.11l.47.18c.02.15-.27.33-.85.54l-.25-.2c.27-.33.48-.5.63-.52Zm13.28-9.73c-.15.02-.32-.12-.49-.4l.67-.07c-.13.17-.19.32-.18.47Zm.29-1.62c-.15.02-.2-.09-.15-.33.05-.23,0-.41-.17-.55l1.84.27c-.88.24-1.31.44-1.3.59l-.22.02Zm-.11,1.14l.23-.02-.23.02Zm.23-.02l.13-.92,1.34-.14-1.48,1.06Zm3.13-2.58c-.11.46-.23.78-.36.94s-.57.36-1.3.58l-.07-.67.15-.69c.42-.34.94-.4,1.57-.16Z"/>
      </g>
    </g>
  </g>
</svg>